<svg id="Capa_1" enable-background="new 0 0 512 512" height="512" viewBox="0 0 512 512" width="512" xmlns="http://www.w3.org/2000/svg"><g><path d="m97.833 302h-65.473l4.762 50h63.568z"/><path d="m411.31 352h63.568l4.762-50h-65.473z"/><path d="m316.241 432h60.449l2.857-50h-62.354z"/><path d="m194.807 382h-62.354l2.857 50h60.449z"/><path d="m406.739 432h60.52l4.761-50h-62.424z"/><path d="m102.404 382h-62.424l4.762 50h60.519z"/><path d="m137.024 462 2.858 50h57.401l-.952-50z"/><path d="m47.599 462 .02.214c2.703 28.383 26.242 49.786 54.753 49.786h7.461l-2.857-50z"/><path d="m402.167 512h7.462c28.511 0 52.049-21.403 54.752-49.785l.021-.215h-59.377z"/><path d="m314.717 512h57.401l2.858-50h-59.307z"/><path d="m227.288 512h57.424l.952-50h-59.328z"/><path d="m194.107 345.27-43.269-43.27h-22.956l2.857 50h63.497z"/><path d="m317.893 345.269-.129 6.731h63.497l2.857-50h-22.956z"/><path d="m277.213 385.949c-5.857 5.858-13.535 8.787-21.213 8.787s-15.355-2.929-21.213-8.787l-3.949-3.949h-6.026l.952 50h60.471l.952-50h-6.026z"/><path d="m408.735 212h-305.47l152.735 152.735z"/><path d="m15 212c-8.284 0-15 6.716-15 15v30c0 8.284 6.716 15 15 15h105.838l-60-60z"/><path d="m497 212h-45.838l-60 60h105.838c8.284 0 15-6.716 15-15v-30c0-8.284-6.716-15-15-15z"/><path d="m301 25c0-13.785-11.215-25-25-25h-40c-13.785 0-25 11.215-25 25v157h90z"/></g></svg>